[Header]
FileType HTR
DataType HTRS
FileVersion 1
NumSegments 64
NumFrames 3
DataFrameRate 24
EulerRotationOrder ZYX
CalibrationUnits mm
RotationUnits Degrees
GlobalAxisofGravity Y
BoneLengthAxis Y
ScaleFactor 1.0
[SegmentNames&Hierarchy]
Hips	GLOBAL
Spine	Hips
Spine1	Spine
Spine2	Spine1
Neck	Spine2
Head	Neck
LeftEye	Head
RightEye	Head
LeftShoulder	Spine2
LeftArm	LeftShoulder
LeftForeArm	LeftArm
LeftHand	LeftForeArm
LeftHandThumb1	LeftHand
LeftHandThumb2	LeftHandThumb1
LeftHandThumb3	LeftHandThumb2
LeftHandThumb4	LeftHandThumb3
LeftHandIndex1	LeftHand
LeftHandIndex2	LeftHandIndex1
LeftHandIndex3	LeftHandIndex2
LeftHandIndex4	LeftHandIndex3
LeftHandMiddle1	LeftHand
LeftHandMiddle2	LeftHandMiddle1
LeftHandMiddle3	LeftHandMiddle2
LeftHandMiddle4	LeftHandMiddle3
LeftHandRing1	LeftHand
LeftHandRing2	LeftHandRing1
LeftHandRing3	LeftHandRing2
LeftHandRing4	LeftHandRing3
LeftHandPinky1	LeftHand
LeftHandPinky2	LeftHandPinky1
LeftHandPinky3	LeftHandPinky2
LeftHandPinky4	LeftHandPinky3
RightShoulder	Spine2
RightArm	RightShoulder
RightForeArm	RightArm
RightHand	RightForeArm
RightHandPinky1	RightHand
RightHandPinky2	RightHandPinky1
RightHandPinky3	RightHandPinky2
RightHandPinky4	RightHandPinky3
RightHandRing1	RightHand
RightHandRing2	RightHandRing1
RightHandRing3	RightHandRing2
RightHandRing4	RightHandRing3
RightHandMiddle1	RightHand
RightHandMiddle2	RightHandMiddle1
RightHandMiddle3	RightHandMiddle2
RightHandMiddle4	RightHandMiddle3
RightHandIndex1	RightHand
RightHandIndex2	RightHandIndex1
RightHandIndex3	RightHandIndex2
RightHandIndex4	RightHandIndex3
RightHandThumb1	RightHand
RightHandThumb2	RightHandThumb1
RightHandThumb3	RightHandThumb2
RightHandThumb4	RightHandThumb3
LeftUpLeg	Hips
LeftLeg	LeftUpLeg
LeftFoot	LeftLeg
LeftToeBase	LeftFoot
RightUpLeg	Hips
RightLeg	RightUpLeg
RightFoot	RightLeg
RightToeBase	RightFoot
[BasePosition]
Hips	0	0	0	0	0	0	1
Spine	0	0	0	0	0	0	1
Spine1	0	0	0	0	0	0	1
Spine2	0	0	0	0	0	0	1
Neck	0	0	0	0	0	0	1
Head	0	0	0	0	0	0	1
LeftEye	0	0	0	0	0	0	1
RightEye	0	0	0	0	0	0	1
LeftShoulder	0	0	0	0	0	0	1
LeftArm	0	0	0	0	0	0	1
LeftForeArm	0	0	0	0	0	0	1
LeftHand	0	0	0	0	0	0	1
LeftHandThumb1	0	0	0	0	0	0	1
LeftHandThumb2	0	0	0	0	0	0	1
LeftHandThumb3	0	0	0	0	0	0	1
LeftHandThumb4	0	0	0	0	0	0	1
LeftHandIndex1	0	0	0	0	0	0	1
LeftHandIndex2	0	0	0	0	0	0	1
LeftHandIndex3	0	0	0	0	0	0	1
LeftHandIndex4	0	0	0	0	0	0	1
LeftHandMiddle1	0	0	0	0	0	0	1
LeftHandMiddle2	0	0	0	0	0	0	1
LeftHandMiddle3	0	0	0	0	0	0	1
LeftHandMiddle4	0	0	0	0	0	0	1
LeftHandRing1	0	0	0	0	0	0	1
LeftHandRing2	0	0	0	0	0	0	1
LeftHandRing3	0	0	0	0	0	0	1
LeftHandRing4	0	0	0	0	0	0	1
LeftHandPinky1	0	0	0	0	0	0	1
LeftHandPinky2	0	0	0	0	0	0	1
LeftHandPinky3	0	0	0	0	0	0	1
LeftHandPinky4	0	0	0	0	0	0	1
RightShoulder	0	0	0	0	0	0	1
RightArm	0	0	0	0	0	0	1
RightForeArm	0	0	0	0	0	0	1
RightHand	0	0	0	0	0	0	1
RightHandPinky1	0	0	0	0	0	0	1
RightHandPinky2	0	0	0	0	0	0	1
RightHandPinky3	0	0	0	0	0	0	1
RightHandPinky4	0	0	0	0	0	0	1
RightHandRing1	0	0	0	0	0	0	1
RightHandRing2	0	0	0	0	0	0	1
RightHandRing3	0	0	0	0	0	0	1
RightHandRing4	0	0	0	0	0	0	1
RightHandMiddle1	0	0	0	0	0	0	1
RightHandMiddle2	0	0	0	0	0	0	1
RightHandMiddle3	0	0	0	0	0	0	1
RightHandMiddle4	0	0	0	0	0	0	1
RightHandIndex1	0	0	0	0	0	0	1
RightHandIndex2	0	0	0	0	0	0	1
RightHandIndex3	0	0	0	0	0	0	1
RightHandIndex4	0	0	0	0	0	0	1
RightHandThumb1	0	0	0	0	0	0	1
RightHandThumb2	0	0	0	0	0	0	1
RightHandThumb3	0	0	0	0	0	0	1
RightHandThumb4	0	0	0	0	0	0	1
LeftUpLeg	0	0	0	0	0	0	1
LeftLeg	0	0	0	0	0	0	1
LeftFoot	0	0	0	0	0	0	1
LeftToeBase	0	0	0	0	0	0	1
RightUpLeg	0	0	0	0	0	0	1
RightLeg	0	0	0	0	0	0	1
RightFoot	0	0	0	0	0	0	1
RightToeBase	0	0	0	0	0	0	1
[Hips]
24	-9.655957222	985.7037354	1623.994263	2.001347542	3.313857555	0.2486401051	1.0
25	-4.490631104	1006.17688	1682.818604	2.087941408	2.616005421	0.05690760911	1.0
26	0.9027811289	1023.854248	1740.595947	1.933347702	1.942256451	-0.1656666249	1.0
[Spine]
24	0	101.8159943	1.315000057	4.903374195	-2.868648767	-1.063212514	1.0
25	0	101.8159943	1.315000057	5.263348579	-1.930343628	-0.5554121137	1.0
26	0	101.8159943	1.315000057	6.175135136	-1.275912762	-0.0211722143	1.0
[Spine1]
24	0	100.8349991	-10.00800037	2.452680826	-4.845798969	1.977104425	1.0
25	0	100.8349991	-10.00800037	2.559299469	-3.385504007	1.548047781	1.0
26	0	100.8349991	-10.00800037	2.447850943	-2.470367908	1.12680316	1.0
[Spine2]
24	0	91	-13.73399925	2.371863127	-4.818918705	2.156612873	1.0
25	0	91	-13.73399925	2.521679878	-3.350208759	1.689448237	1.0
26	0	91	-13.73399925	2.41737318	-2.43031764	1.239522576	1.0
[Neck]
24	0	166.7169952	-25.16200066	-0.2438095361	3.057257175	1.105800748	1.0
25	0	166.7169952	-25.16200066	-0.2433192879	2.424554348	0.3732957244	1.0
26	0	166.7169952	-25.16200066	-0.4859343469	2.127102852	-0.2553656697	1.0
[Head]
24	0	96.17900085	16.84999847	-4.794916153	7.934414864	-3.276162148	1.0
25	0	96.17900085	16.84999847	-4.173257828	5.659626961	-2.32852149	1.0
26	0	96.17900085	16.84999847	-3.349596024	4.416703701	-2.132271767	1.0
[LeftEye]
24	30.6760006	64.09500122	92.83599854	0	0	0	1.0
25	30.6760006	64.09500122	92.83599854	0	0	0	1.0
26	30.6760006	64.09500122	92.83599854	0	0	0	1.0
[RightEye]
24	-30.6760006	64.09500122	92.83499908	0	0	0	1.0
25	-30.6760006	64.09500122	92.83499908	0	0	0	1.0
26	-30.6760006	64.09500122	92.83499908	0	0	0	1.0
[LeftShoulder]
24	45.70400238	109.4599991	-26.28000069	2.6866436	-9.341352463	-14.06347466	1.0
25	45.70400238	109.4599991	-26.28000069	2.687026262	-9.212053299	-14.28102207	1.0
26	45.70400238	109.4599991	-26.28000069	2.640831709	-8.790821075	-14.61201286	1.0
[LeftArm]
24	105.923996	-5.24600029	-22.32099915	26.10260582	-13.59771252	-56.37187576	1.0
25	105.923996	-5.24600029	-22.32099915	26.67383575	-10.27634335	-58.90358353	1.0
26	105.923996	-5.24600029	-22.32099915	25.50234604	-4.994550228	-60.64110565	1.0
[LeftForeArm]
24	278.414978	-0.0009999999311	0	4.736485607e-06	-21.92317772	-0.0002190319065	1.0
25	278.414978	-0.0009999999311	0	-2.889071027e-07	-14.82305145	-0.0002013663907	1.0
26	278.414978	-0.0009999999311	0	7.130483027e-06	-11.06137276	-0.0002089769987	1.0
[LeftHand]
24	283.2879944	0	0	-2.27277422	-0.3833653033	4.358464241	1.0
25	283.2879944	0	0	0.7817171812	1.929798484	-4.524944782	1.0
26	283.2879944	0	0	2.593476295	4.102733135	-10.40043449	1.0
[LeftHandThumb1]
24	24.6609993	-15.75	26.8239994	5.839803696	2.504242897	11.148386	1.0
25	24.6609993	-15.75	26.8239994	5.839803696	2.504242897	11.148386	1.0
26	24.6609993	-15.75	26.8239994	5.839803696	2.504242897	11.148386	1.0
[LeftHandThumb2]
24	32.29800034	-18.64699936	18.64699936	7.260326862	11.10195351	6.690353394	1.0
25	32.29800034	-18.64699936	18.64699936	7.275758743	9.171006203	6.564957142	1.0
26	32.29800034	-18.64699936	18.64699936	7.427200317	7.539401054	7.329505444	1.0
[LeftHandThumb3]
24	26.52600098	-15.31499958	15.31499958	-1.646833658	-9.575722694	21.71198273	1.0
25	26.52600098	-15.31499958	15.31499958	-1.425748587	-9.117753029	21.32949448	1.0
26	26.52600098	-15.31499958	15.31499958	-0.7903359532	-7.547152042	21.28939247	1.0
[LeftHandThumb4]
24	19.54599953	-11.28499985	11.28499985	0	0	0	1.0
25	19.54599953	-11.28499985	11.28499985	0	0	0	1.0
26	19.54599953	-11.28499985	11.28499985	0	0	0	1.0
[LeftHandIndex1]
24	91.09299469	-5.170999527	22.60099792	-0.8393322825	-1.496910572	-22.77516556	1.0
25	91.09299469	-5.170999527	22.60099792	-0.8873272538	-2.411914349	-21.79528046	1.0
26	91.09299469	-5.170999527	22.60099792	-0.867845118	-4.644089222	-17.58436584	1.0
[LeftHandIndex2]
24	36.76399994	0	0	-0.1990145743	1.512081146	-14.9951992	1.0
25	36.76399994	0	0	-0.2008893192	1.519070506	-15.06610012	1.0
26	36.76399994	0	0	-0.2017990202	1.522405148	-15.10010433	1.0
[LeftHandIndex3]
24	28.83100128	0	0	-0.1990112215	1.512062073	-14.99522114	1.0
25	28.83100128	0	0	-0.2008837014	1.519046426	-15.0661478	1.0
26	28.83100128	0	0	-0.2017835975	1.522390604	-15.10011578	1.0
[LeftHandIndex4]
24	23.92700005	0	0	0	0	0	1.0
25	23.92700005	0	0	0	0	0	1.0
26	23.92700005	0	0	0	0	0	1.0
[LeftHandMiddle1]
24	95.33399963	0	0	-1.941621065	5.285480499	-30.42430687	1.0
25	95.33399963	0	0	-1.886272788	5.10973978	-29.79754829	1.0
26	95.33399963	0	0	-1.623566985	4.193055153	-26.69461632	1.0
[LeftHandMiddle2]
24	36.98199844	0	0	-0.1256783307	1.205488086	-11.90336037	1.0
25	36.98199844	0	0	-0.1256557256	1.205367088	-11.90215588	1.0
26	36.98199844	0	0	-0.1256302744	1.205278516	-11.90108299	1.0
[LeftHandMiddle3]
24	29.50900078	0	0	-0.1710038781	1.40334022	-13.89392185	1.0
25	29.50900078	0	0	-0.1709686667	1.403227329	-13.89270973	1.0
26	29.50900078	0	0	-0.1709424704	1.403114915	-13.89170074	1.0
[LeftHandMiddle4]
24	28.3390007	0	0	0	0	0	1.0
25	28.3390007	0	0	0	0	0	1.0
26	28.3390007	0	0	0	0	0	1.0
[LeftHandRing1]
24	91.04499817	-0.4390000105	-18.65100098	-2.060982704	7.321199417	-31.80739784	1.0
25	91.04499817	-0.4390000105	-18.65100098	-1.993931174	7.137336731	-31.05047226	1.0
26	91.04499817	-0.4390000105	-18.65100098	-1.684743762	6.772592545	-27.45466423	1.0
[LeftHandRing2]
24	31.54000092	0	0	-0.3271298707	1.927584648	-19.26199532	1.0
25	31.54000092	0	0	-0.3282990754	1.930956125	-19.29693031	1.0
26	31.54000092	0	0	-0.3293331265	1.933915257	-19.32773781	1.0
[LeftHandRing3]
24	29.37700081	0	0	-0.3972839415	2.117589951	-21.24973297	1.0
25	29.37700081	0	0	-0.3986026049	2.120964527	-21.28520203	1.0
26	29.37700081	0	0	-0.3997620344	2.123917103	-21.31639862	1.0
[LeftHandRing4]
24	26.47500038	0	0	0	0	0	1.0
25	26.47500038	0	0	0	0	0	1.0
26	26.47500038	0	0	0	0	0	1.0
[LeftHandPinky1]
24	80.77799988	-4.887000084	-38.06099701	-2.574811935	7.031960487	-35.64365387	1.0
25	80.77799988	-4.887000084	-38.06099701	-2.610781908	7.77503252	-35.39680862	1.0
26	80.77799988	-4.887000084	-38.06099701	-2.564273834	8.745218277	-34.04150009	1.0
[LeftHandPinky2]
24	36	0	0	-0.2670844793	1.74643743	-17.38925743	1.0
25	36	0	0	-0.270930618	1.758612394	-17.51467514	1.0
26	36	0	0	-0.2767331302	1.776892781	-17.70281601	1.0
[LeftHandPinky3]
24	21.14200211	0	0	-0.2670896649	1.746400237	-17.38926506	1.0
25	21.14200211	0	0	-0.2709260285	1.758615851	-17.51466179	1.0
26	21.14200211	0	0	-0.2767274678	1.776890278	-17.70280647	1.0
[LeftHandPinky4]
24	19.75699997	0	0	0	0	0	1.0
25	19.75699997	0	0	0	0	0	1.0
26	19.75699997	0	0	0	0	0	1.0
[RightShoulder]
24	-45.70000076	109.4620056	-26.28000069	1.49888885	2.849225998	16.72377205	1.0
25	-45.70000076	109.4620056	-26.28000069	1.588720083	3.357018232	16.31750298	1.0
26	-45.70000076	109.4620056	-26.28000069	1.654885769	3.830154419	15.79250145	1.0
[RightArm]
24	-105.9280014	-5.248000145	-22.32099915	20.39280701	8.338805199	53.87823105	1.0
25	-105.9280014	-5.248000145	-22.32099915	21.72729683	12.49482155	53.90874481	1.0
26	-105.9280014	-5.248000145	-22.32099915	23.98487091	15.96362591	53.51612091	1.0
[RightForeArm]
24	-278.414978	0	0	2.350908062e-06	16.35678291	6.455284165e-06	1.0
25	-278.414978	0	0	2.267760465e-06	19.41622353	5.989882084e-06	1.0
26	-278.414978	0	0	4.725494364e-06	23.1985569	1.63648383e-05	1.0
[RightHand]
24	-283.2879944	0	0.0009999999311	-3.46804738	-6.781899929	12.69305325	1.0
25	-283.2879944	0	0.0009999999311	-4.30697155	-2.765788078	8.773508072	1.0
26	-283.2879944	0	0.0009999999311	-1.240000606	1.073316813	5.88105011	1.0
[RightHandPinky1]
24	-80.76699829	-4.885000229	-38.06000137	-2.261985779	-1.369873166	30.65621376	1.0
25	-80.76699829	-4.885000229	-38.06000137	-2.041746378	-2.324139595	29.86150742	1.0
26	-80.76699829	-4.885000229	-38.06000137	-1.915670753	-2.856531382	29.38044739	1.0
[RightHandPinky2]
24	-36	0	0.0009999999311	-0.5681898594	-2.22428894	28.67566681	1.0
25	-36	0	0.0009999999311	-0.5662034154	-2.220661879	28.62442207	1.0
26	-36	0	0.0009999999311	-0.5657629371	-2.219853401	28.61310577	1.0
[RightHandPinky3]
24	-21.14200211	0	0	-0.1777844727	-1.272054315	15.91177082	1.0
25	-21.14200211	0	0	-0.1771115661	-1.269684672	15.88148117	1.0
26	-21.14200211	0	0	-0.1770883799	-1.269620657	15.88053989	1.0
[RightHandPinky4]
24	-19.75699997	0	0	0	0	0	1.0
25	-19.75699997	0	0	0	0	0	1.0
26	-19.75699997	0	0	0	0	0	1.0
[RightHandRing1]
24	-91.03599548	-0.4390000105	-18.65100098	-1.502567768	-1.731665969	27.11073112	1.0
25	-91.03599548	-0.4390000105	-18.65100098	-1.383571625	-2.054739475	25.43975639	1.0
26	-91.03599548	-0.4390000105	-18.65100098	-1.309584618	-2.23311162	24.38697243	1.0
[RightHandRing2]
24	-31.54000092	0	0	-1.494715929	-3.408823967	47.34346771	1.0
25	-31.54000092	0	0	-1.494807482	-3.408904314	47.34504318	1.0
26	-31.54000092	0	0	-1.497397542	-3.411292076	47.38854218	1.0
[RightHandRing3]
24	-29.37700081	0	0	-0.3704214692	-1.816416264	23.05080223	1.0
25	-29.37700081	0	0	-0.3705298901	-1.816665173	23.05416489	1.0
26	-29.37700081	0	0	-0.3719297647	-1.819963932	23.09837723	1.0
[RightHandRing4]
24	-26.47500038	0	0	0	0	0	1.0
25	-26.47500038	0	0	0	0	0	1.0
26	-26.47500038	0	0	0	0	0	1.0
[RightHandMiddle1]
24	-95.32500458	0	0	-1.27845335	-0.1279185116	24.02687073	1.0
25	-95.32500458	0	0	-1.199531674	0.01285093836	22.89023209	1.0
26	-95.32500458	0	0	-1.153393984	0.1281826943	22.21801376	1.0
[RightHandMiddle2]
24	-36.98199844	0	0	-0.8584800959	-2.687730789	35.42232513	1.0
25	-36.98199844	0	0	-0.854491055	-2.682115555	35.33709717	1.0
26	-36.98199844	0	0	-0.8532634974	-2.680414438	35.31111145	1.0
[RightHandMiddle3]
24	-29.50900078	0	0	-0.2975811064	-1.636780739	20.63224792	1.0
25	-29.50900078	0	0	-0.2951487601	-1.63032341	20.54691887	1.0
26	-29.50900078	0	0	-0.2944079638	-1.628332019	20.52070427	1.0
[RightHandMiddle4]
24	-28.3390007	0	0.0009999999311	0	0	0	1.0
25	-28.3390007	0	0.0009999999311	0	0	0	1.0
26	-28.3390007	0	0.0009999999311	0	0	0	1.0
[RightHandIndex1]
24	-91.08300018	-5.167999744	22.60099792	-1.298396945	4.769297123	24.76262665	1.0
25	-91.08300018	-5.167999744	22.60099792	-1.136555314	4.698191643	22.41889381	1.0
26	-91.08300018	-5.167999744	22.60099792	-1.018371105	4.672451973	20.65817261	1.0
[RightHandIndex2]
24	-36.76399994	0	0	-0.3946916759	-1.872393608	23.80477715	1.0
25	-36.76399994	0	0	-0.3942560852	-1.871419072	23.79156303	1.0
26	-36.76399994	0	0	-0.3926910758	-1.867859602	23.74347687	1.0
[RightHandIndex3]
24	-28.83100128	0	0	-0.07841939479	-0.8494883776	10.54846954	1.0
25	-28.83100128	0	0	-0.0782141462	-0.8483574986	10.53438568	1.0
26	-28.83100128	0	0	-0.07741387188	-0.8440722227	10.48040771	1.0
[RightHandIndex4]
24	-23.92700005	0	0	0	0	0	1.0
25	-23.92700005	0	0	0	0	0	1.0
26	-23.92700005	0	0	0	0	0	1.0
[RightHandThumb1]
24	-24.64799881	-15.72700024	26.82600021	12.78110313	-2.167885065	-4.410644054	1.0
25	-24.64799881	-15.72700024	26.82600021	12.78110313	-2.167885065	-4.410644054	1.0
26	-24.64799881	-15.72700024	26.82600021	12.78110313	-2.167885065	-4.410644054	1.0
[RightHandThumb2]
24	-32.29800034	-18.64699936	18.64699936	9.471096992	-17.86867523	-9.254415512	1.0
25	-32.29800034	-18.64699936	18.64699936	8.739608765	-17.8859005	-9.751895905	1.0
26	-32.29800034	-18.64699936	18.64699936	7.935200691	-18.01411247	-10.16807938	1.0
[RightHandThumb3]
24	-26.52600098	-15.31399918	15.31399918	-15.57586765	-4.634058475	-11.31290531	1.0
25	-26.52600098	-15.31399918	15.31399918	-15.53141212	-4.73931551	-11.27967262	1.0
26	-26.52600098	-15.31399918	15.31399918	-15.49313164	-4.829918861	-11.25108433	1.0
[RightHandThumb4]
24	-19.54599953	-11.28499985	11.28499985	0	0	0	1.0
25	-19.54599953	-11.28499985	11.28499985	0	0	0	1.0
26	-19.54599953	-11.28499985	11.28499985	0	0	0	1.0
[LeftUpLeg]
24	82.07800293	-67.51699829	-15.99599934	-15.66575527	11.6802063	2.288579464	1.0
25	82.07800293	-67.51699829	-15.99599934	-23.45766258	11.45419979	0.8914068937	1.0
26	82.07800293	-67.51699829	-15.99599934	-28.23791122	10.31993675	-0.05418060347	1.0
[LeftLeg]
24	0	-443.7049866	2.845999956	71.41221619	-5.541334629	-2.229941607	1.0
25	0	-443.7049866	2.845999956	68.21201324	-3.601047993	-4.274783134	1.0
26	0	-443.7049866	2.845999956	57.14549637	-2.066855669	-4.189835072	1.0
[LeftFoot]
24	0	-444.2789917	-29.8219986	5.756762028	0.1329208612	-3.140403509	1.0
25	0	-444.2789917	-29.8219986	2.824170589	0.05567190796	-2.138887644	1.0
26	0	-444.2789917	-29.8219986	0.2165650427	0.06998351961	-1.51828599	1.0
[LeftToeBase]
24	0	-87.28699493	107.1060028	-9.681059837	1.610042887e-06	-8.378885468e-06	1.0
25	0	-87.28699493	107.1060028	-8.942777634	-1.585054974e-06	8.768791417e-07	1.0
26	0	-87.28699493	107.1060028	-8.204111099	6.599147127e-06	-1.516127213e-06	1.0
[RightUpLeg]
24	-82.07800293	-67.51699829	-15.99599934	-28.83157921	-7.114615917	2.176532507	1.0
25	-82.07800293	-67.51699829	-15.99599934	-21.78099632	-6.365636349	2.946888685	1.0
26	-82.07800293	-67.51699829	-15.99599934	-13.44132137	-6.812338829	3.395168781	1.0
[RightLeg]
24	0	-443.7049866	2.861999989	34.94708252	1.647320151	1.667472601	1.0
25	0	-443.7049866	2.861999989	28.57990074	2.624253273	-0.8530669808	1.0
26	0	-443.7049866	2.861999989	19.71054077	3.859279394	-2.533339024	1.0
[RightFoot]
24	0	-444.2770081	-29.83799934	-9.340269089	-0.3336406946	-2.893293858	1.0
25	0	-444.2770081	-29.83799934	-10.1965065	-0.1285616755	-1.068589926	1.0
26	0	-444.2770081	-29.83799934	-9.456664085	0.0346638076	0.2534658611	1.0
[RightToeBase]
24	0	-87.28699493	107.1060028	-5.806210041	-1.498584368e-08	7.919331324e-07	1.0
25	0	-87.28699493	107.1060028	-5.385513783	6.988140626e-07	4.647096148e-07	1.0
26	0	-87.28699493	107.1060028	-4.971785069	-2.933932421e-07	-2.812789717e-07	1.0
[EndOfFile]
